<svg width="52" height="14" viewBox="0 0 52 14" fill="none" xmlns="http://www.w3.org/2000/svg">
<path d="M8.683 3.11917V0.326172H0V3.11917H2.698V12.9992H5.985V3.11917H8.683Z" fill="#2F323B"/>
<path d="M26.7856 12.9992H29.8256V4.50617H26.7856V8.04017C26.4056 8.15417 26.1206 8.17317 25.7216 8.17317C25.4176 8.17317 24.9616 8.17317 24.6956 7.94517C24.3916 7.69817 24.3726 7.28017 24.3726 6.97617V4.50617H21.4466V7.18517C21.4466 7.92617 21.5226 8.91417 22.2066 9.59817C22.9286 10.3392 24.1066 10.4342 24.9236 10.4342C25.6456 10.4342 26.1776 10.3772 26.7856 10.2252V12.9992Z" fill="#2F323B"/>
<path d="M31.5373 12.9992H34.5773V9.23717L37.3513 12.9992H41.2843L37.4463 8.49617L40.9613 4.50617H37.1423L34.5773 7.98317V4.50617H31.5373V12.9992Z" fill="#2F323B"/>
<path d="M41.9747 4.50617V12.9992H44.6537L47.9787 8.51517V12.9992H51.0187V4.50617H48.3777L45.0147 8.87617V4.50617H41.9747Z" fill="#2F323B"/>
<path fill-rule="evenodd" clip-rule="evenodd" d="M14 6.61538C15.2745 6.61538 16.3077 5.5822 16.3077 4.30769C16.3077 3.03319 15.2745 2 14 2C12.7255 2 11.6923 3.03319 11.6923 4.30769C11.6923 5.5822 12.7255 6.61538 14 6.61538ZM17.6923 10.3077C18.9668 10.3077 20 9.2745 20 8C20 6.7255 18.9668 5.69231 17.6923 5.69231C16.4178 5.69231 15.3846 6.7255 15.3846 8C15.3846 9.2745 16.4178 10.3077 17.6923 10.3077ZM16.3077 11.6923C16.3077 12.9668 15.2745 14 14 14C12.7255 14 11.6923 12.9668 11.6923 11.6923C11.6923 10.4178 12.7255 9.38462 14 9.38462C15.2745 9.38462 16.3077 10.4178 16.3077 11.6923ZM10.3077 10.3077C11.5822 10.3077 12.6154 9.2745 12.6154 8C12.6154 6.7255 11.5822 5.69231 10.3077 5.69231C9.03319 5.69231 8 6.7255 8 8C8 9.2745 9.03319 10.3077 10.3077 10.3077Z" fill="#5768F2"/>
</svg>
