<svg width="110" height="18" viewBox="0 0 110 18" fill="none" xmlns="http://www.w3.org/2000/svg">
<path d="M0.330078 0.326172V12.9992H3.69308L8.44308 5.01917V12.9992H11.7491V0.326172H8.38608L3.63608 8.30617V0.326172H0.330078Z" fill="#2F323B"/>
<path d="M13.7481 12.9992H16.7881V9.76917H19.6191V12.9992H22.6591V4.50617H19.6191V7.37517H16.7881V4.50617H13.7481V12.9992Z" fill="#2F323B"/>
<path d="M30.793 10.2632C30.242 10.7382 29.672 10.8332 29.235 10.8332C28.456 10.8332 27.962 10.4912 27.677 10.1872C27.316 9.78817 27.145 9.23717 27.145 8.76217C27.145 8.26817 27.316 7.71717 27.734 7.29917C28.038 6.99517 28.494 6.71017 29.216 6.71017C29.862 6.71017 30.394 6.97617 30.793 7.26117V4.71517C30.033 4.33517 29.349 4.24017 28.817 4.24017C27.373 4.24017 26.195 4.77217 25.397 5.53217C24.542 6.36817 24.029 7.56517 24.029 8.81917C24.029 10.0732 24.542 11.2132 25.34 11.9922C25.948 12.5812 27.031 13.2842 28.684 13.2842C29.311 13.2842 29.976 13.2082 30.793 12.8092V10.2632Z" fill="#2F323B"/>
<path d="M33.4855 12.9992H36.5255V6.99517H38.7295V4.50617H31.2815V6.99517H33.4855V12.9992Z" fill="#2F323B"/>
<path d="M42.6266 12.1822C43.5766 13.1702 44.7166 13.2842 45.2676 13.2842C46.1226 13.2842 47.2246 13.0372 48.1746 12.1062C48.9916 11.3082 49.5426 10.1682 49.5426 8.74317C49.5426 7.28017 48.9536 6.15917 48.2506 5.45617C47.5666 4.77217 46.5406 4.22117 45.2296 4.22117C43.9756 4.22117 43.1586 4.77217 42.6266 5.43717V4.50617H39.5866V17.3502H42.6266V12.1822ZM44.4886 6.80517C45.0206 6.80517 45.4956 7.01417 45.8376 7.37517C46.2176 7.75517 46.4266 8.30617 46.4266 8.78117C46.4266 9.29417 46.1606 9.80717 45.8376 10.1302C45.4956 10.4912 45.0206 10.7002 44.4886 10.7002C43.9756 10.7002 43.4816 10.4912 43.1206 10.1302C42.7976 9.80717 42.5316 9.27517 42.5316 8.78117C42.5316 8.30617 42.7406 7.75517 43.1206 7.37517C43.4816 7.01417 43.9756 6.80517 44.4886 6.80517Z" fill="#2F323B"/>
<path d="M68.1329 12.9992H71.1729V9.23717L73.9469 12.9992H77.8799L74.0419 8.49617L77.5569 4.50617H73.7379L71.1729 7.98317V4.50617H68.1329V12.9992Z" fill="#2F323B"/>
<path d="M78.5703 12.9992H85.9993V15.4692H88.6593V10.6052H87.2533V4.50617H84.2133V10.6052H81.6103V4.50617H78.5703V12.9992Z" fill="#2F323B"/>
<path d="M89.5086 4.50617V12.9992H92.1876L95.5126 8.51517V12.9992H98.5526V4.50617H95.9116L92.5486 8.87617V4.50617H89.5086Z" fill="#2F323B"/>
<path d="M100.261 4.50617V12.9992H102.94L106.265 8.51517V12.9992H109.305V4.50617H106.664L103.301 8.87617V4.50617H100.261Z" fill="#2F323B"/>
<path fill-rule="evenodd" clip-rule="evenodd" d="M64.75 2H66V13.351L64.4468 12.9627C64.1929 12.8992 63.7004 12.8115 63.1432 12.7862C62.5739 12.7603 62.0388 12.8047 61.6453 12.9359C61.2568 13.0653 60.6496 13.4503 60.05 13.9C59.7713 14.1091 59.5259 14.3076 59.3502 14.454C59.2627 14.5269 59.1933 14.5862 59.1467 14.6265C59.1234 14.6466 59.1059 14.6619 59.0946 14.6718L59.0826 14.6824L59.08 14.6846L58.5306 15.6938L58.5 16L57.67 14.9346L57.6674 14.9324L57.6554 14.9218C57.6502 14.9173 57.6437 14.9116 57.636 14.9048C57.6268 14.8969 57.6159 14.8874 57.6033 14.8765C57.5567 14.8362 57.4873 14.7769 57.3998 14.704C57.2241 14.5576 56.9787 14.3591 56.7 14.15C56.1004 13.7003 55.4932 13.3153 55.1047 13.1859C54.7112 13.0547 54.1761 13.0103 53.6068 13.0362C53.0496 13.0615 52.5571 13.1492 52.3032 13.2127L50.75 13.601V2.25H52C52.7156 2.25 54.5063 2.35116 55.8953 2.81415C56.6678 3.07165 57.4109 3.52854 57.9935 3.94853C58.0689 4.00286 58.1427 4.05746 58.2149 4.11199C58.3834 3.97612 58.5652 3.83647 58.7565 3.69853C59.3391 3.27854 60.0822 2.82164 60.8547 2.56415C62.2437 2.10116 64.0344 2 64.75 2ZM59.5 7.98579L59.6844 6.13965C59.844 6.00754 60.0245 5.86631 60.2185 5.72647C60.7109 5.37146 61.2178 5.07835 61.6453 4.93585C62.1968 4.75202 62.8866 4.63906 63.5 4.57434V10.3029C63.42 10.2973 63.3388 10.2925 63.2568 10.2888C62.5427 10.2563 61.6612 10.2953 60.8547 10.5641C60.407 10.7134 59.9345 10.9675 59.5 11.241V7.98579ZM57.1468 6.45751C56.9682 6.30658 56.7591 6.14056 56.5315 5.97647C56.0391 5.62146 55.5322 5.32835 55.1047 5.18585C54.5532 5.00202 53.8634 4.88906 53.25 4.82434V10.5529C53.33 10.5473 53.4112 10.5425 53.4932 10.5388C54.2073 10.5063 55.0888 10.5453 55.8953 10.8141C56.343 10.9634 56.8155 11.2175 57.25 11.491V7.31853L57.1468 6.45751Z" fill="#5768F2"/>
</svg>
