<svg width="25" height="16" viewBox="0 0 25 16" fill="none" xmlns="http://www.w3.org/2000/svg">
<path d="M18.4706 3.00018L23 7.85312L18.4706 12.7061" stroke="#5768F2" stroke-width="2"/>
<path d="M23 7.8825L8.5 7.88251" stroke="#5768F2" stroke-width="2"/>
<path fill-rule="evenodd" clip-rule="evenodd" d="M16 4L16 3C16 1.34315 14.6569 -5.87108e-08 13 -1.31134e-07L3 -5.68248e-07C1.34315 -6.40671e-07 -5.87108e-08 1.34315 -1.31134e-07 3L-5.68248e-07 13C-6.40671e-07 14.6569 1.34314 16 3 16L13 16C14.6569 16 16 14.6569 16 13L16 12L14 12L14 13C14 13.5523 13.5523 14 13 14L3 14C2.44772 14 2 13.5523 2 13L2 3C2 2.44771 2.44772 2 3 2L13 2C13.5523 2 14 2.44772 14 3L14 4L16 4Z" fill="#5768F2"/>
</svg>
