<svg width="16" height="16" viewBox="0 0 16 16" fill="none" xmlns="http://www.w3.org/2000/svg">
<path d="M0 2C0 0.895431 0.895431 0 2 0H14C15.1046 0 16 0.895431 16 2V14C16 15.1046 15.1046 16 14 16H2C0.895431 16 0 15.1046 0 14V2Z" fill="#5768F2"/>
<path fill-rule="evenodd" clip-rule="evenodd" d="M9.30005 6.96317C8.71231 6.06902 7.76383 5.1875 6.44672 5.1875C3.94123 5.1875 3.66284 7.4146 3.66284 8.24977C3.66284 9.08493 4.35881 11.0336 6.44672 11.0336C7.62428 11.0336 8.64042 10.1112 9.30005 9.24186C9.95968 10.1112 10.9758 11.0336 12.1534 11.0336C14.2413 11.0336 14.9373 9.08493 14.9373 8.24977C14.9373 7.4146 14.6589 5.1875 12.1534 5.1875C10.8363 5.1875 9.88779 6.06902 9.30005 6.96317ZM6.53952 6.71863C7.60853 6.71863 8.22222 7.69078 8.39544 8.17686C8.14798 8.61874 7.43036 9.50251 6.53952 9.50251C5.42597 9.50251 5.05478 8.57455 5.05478 8.17686C5.05478 7.77916 5.20326 6.71863 6.53952 6.71863ZM12.0606 6.71863C10.9916 6.71863 10.3779 7.69078 10.2047 8.17686C10.4521 8.61874 11.1697 9.50251 12.0606 9.50251C13.1741 9.50251 13.5453 8.57455 13.5453 8.17686C13.5453 7.77916 13.3968 6.71863 12.0606 6.71863ZM1.85591 10.9086H3.30074V5.3381H1.0625V6.5658H1.85591V10.9086Z" fill="white"/>
</svg>
