<svg width="102" height="18" viewBox="0 0 102 18" fill="none" xmlns="http://www.w3.org/2000/svg">
<path d="M3.36425 13.0462L4.47914 5.53536L7.49132 13.0462H8.84093L11.99 5.53536L12.9484 13.0462H16.3322L14.3763 0H10.9925L8.19546 6.96321L5.55492 0H2.21023L0 13.0462H3.36425Z" fill="#2F323B"/>
<path d="M24.5676 5.14417C24.196 4.73342 23.3549 4.00971 21.9466 4.00971C20.6948 4.00971 19.5408 4.4987 18.7975 5.24197C18.0934 5.94611 17.4479 7.10013 17.4479 8.74313C17.4479 10.0536 17.8587 11.0512 18.6997 11.9509C19.7559 13.0658 20.91 13.3396 21.8488 13.3396C22.7094 13.3396 23.8439 13.0854 24.5676 12.0878V13.0462H27.6971V4.30311H24.5676V5.14417ZM22.6508 6.66982C23.3158 6.66982 23.7656 6.96321 24.059 7.23704C24.548 7.70647 24.6654 8.25414 24.6654 8.66489C24.6654 9.36904 24.3524 9.79935 24.0786 10.0732C23.6874 10.4644 23.1789 10.6795 22.6703 10.6795C22.1422 10.6795 21.5945 10.4057 21.262 10.0927C20.8708 9.72111 20.6557 9.17344 20.6557 8.66489C20.6557 8.21502 20.8513 7.6478 21.2816 7.23704C21.7315 6.80673 22.2596 6.66982 22.6508 6.66982Z" fill="#2F323B"/>
<path d="M32.5911 12.2052C33.5691 13.2223 34.7427 13.3396 35.3099 13.3396C36.1901 13.3396 37.3246 13.0854 38.3025 12.1269C39.1436 11.3054 39.7108 10.1319 39.7108 8.66489C39.7108 7.15881 39.1045 6.00479 38.3808 5.28109C37.6766 4.57694 36.6204 4.00971 35.2708 4.00971C33.9799 4.00971 33.1388 4.57694 32.5911 5.26153V4.30311H29.4616V17.5254H32.5911V12.2052ZM34.508 6.66982C35.0556 6.66982 35.5446 6.88497 35.8967 7.2566C36.2879 7.64779 36.5031 8.21502 36.5031 8.70401C36.5031 9.23212 36.2292 9.76023 35.8967 10.0927C35.5446 10.4644 35.0556 10.6795 34.508 10.6795C33.9799 10.6795 33.4713 10.4644 33.0997 10.0927C32.7672 9.76023 32.4933 9.21256 32.4933 8.70401C32.4933 8.21502 32.7085 7.64779 33.0997 7.2566C33.4713 6.88497 33.9799 6.66982 34.508 6.66982Z" fill="#2F323B"/>
<path d="M41.1232 13.0462H55.2061V4.30311H52.0766V10.5817H49.7295V4.30311H46.5999V10.5817H44.2528V4.30311H41.1232V13.0462Z" fill="#2F323B"/>
<path d="M60.0976 12.2052C61.0755 13.2223 62.2491 13.3396 62.8163 13.3396C63.6965 13.3396 64.831 13.0854 65.809 12.1269C66.65 11.3054 67.2173 10.1319 67.2173 8.66489C67.2173 7.15881 66.6109 6.00479 65.8872 5.28109C65.1831 4.57694 64.1268 4.00971 62.7772 4.00971C61.4863 4.00971 60.6452 4.57694 60.0976 5.26153V4.30311H56.968V17.5254H60.0976V12.2052ZM62.0144 6.66982C62.5621 6.66982 63.0511 6.88497 63.4031 7.2566C63.7943 7.64779 64.0095 8.21502 64.0095 8.70401C64.0095 9.23212 63.7356 9.76023 63.4031 10.0927C63.0511 10.4644 62.5621 10.6795 62.0144 10.6795C61.4863 10.6795 60.9777 10.4644 60.6061 10.0927C60.2736 9.76023 59.9998 9.21256 59.9998 8.70401C59.9998 8.21502 60.2149 7.64779 60.6061 7.2566C60.9777 6.88497 61.4863 6.66982 62.0144 6.66982Z" fill="#2F323B"/>
<path d="M82.5403 13.0462H85.6699V6.86541H87.9388V4.30311H80.2714V6.86541H82.5403V13.0462Z" fill="#2F323B"/>
<path d="M98.0532 13.0462H101.183V4.30311H98.0532V13.0462ZM91.9506 7.21748V4.30311H88.8211V13.0462H94.0826C94.9628 13.0462 95.9017 12.7528 96.4689 12.1856C97.0948 11.5597 97.2122 10.7186 97.2122 10.0927C97.2122 9.42772 97.0753 8.62578 96.4298 7.99987C95.7256 7.33484 94.7868 7.21748 94.0826 7.21748H91.9506ZM91.9506 11.012V9.25168H93.0851C93.3589 9.25168 93.7306 9.31036 93.9457 9.48639C94.0631 9.58419 94.1804 9.77979 94.1804 10.1123C94.1804 10.347 94.1022 10.6013 93.9653 10.7382C93.8088 10.8947 93.4176 11.012 93.1242 11.012H91.9506Z" fill="#2F323B"/>
<path fill-rule="evenodd" clip-rule="evenodd" d="M75.5523 8.84511L69.6844 2.97723L67.8403 4.82133L73.7082 10.6892L68.3437 10.6892L68.3437 13.2971L76.8563 13.2971L78.1602 13.2971V11.9931L78.1603 3.59246L75.5523 3.59246L75.5523 8.84511Z" fill="#5768F2"/>
</svg>
