<svg width="78" height="18" viewBox="0 0 78 18" fill="none" xmlns="http://www.w3.org/2000/svg">
<path d="M17.8319 7.41845C17.8889 6.71545 18.1739 6.03145 18.5919 5.57545C19.1049 5.04345 19.8269 4.81545 20.4539 4.64445C21.2709 4.41645 22.0119 4.22645 22.6579 3.99845C23.3419 3.75145 23.8549 3.50445 24.4059 2.78245C24.8239 2.23145 25.0899 1.66145 25.1849 0.939453H22.5439C22.5439 1.18645 22.4299 1.41445 22.2969 1.56645C22.0309 1.83245 21.4989 1.94645 21.0049 2.04145L20.4539 2.15545C18.8579 2.47845 17.8509 2.87745 16.9959 3.75145C15.6279 5.17645 15.1719 7.38045 15.1719 9.47045C15.1719 10.5725 15.3049 12.5865 16.6159 13.9355C17.6609 15.0185 19.0669 15.2845 20.2829 15.2845C21.3849 15.2845 22.9049 15.0755 24.0829 13.8975C24.8239 13.1565 25.3939 12.0735 25.3939 10.5345C25.3939 9.58445 25.2039 8.40645 24.1969 7.45645C23.6269 6.92445 22.6009 6.25945 20.8339 6.25945C19.3709 6.25945 18.5349 6.75345 17.9649 7.41845H17.8319ZM20.2829 8.76745C20.6249 8.76745 21.1189 8.84345 21.5939 9.26145C22.1829 9.77445 22.2399 10.3635 22.2399 10.6295C22.2399 11.1235 22.0119 11.7695 21.5939 12.1685C21.2709 12.4725 20.7959 12.6625 20.2829 12.6625C19.8459 12.6625 19.3709 12.5295 18.9719 12.1685C18.5729 11.8075 18.3259 11.2945 18.3259 10.7055C18.3259 10.1165 18.6109 9.58445 18.9719 9.26145C19.3139 8.95745 19.7699 8.76745 20.2829 8.76745Z" fill="#2F323B"/>
<path d="M31.1377 9.33745V6.50645H25.9127V8.99545H28.0977V14.9995H33.2657C34.1397 14.9995 35.0517 14.7145 35.6027 14.1635C36.0967 13.6505 36.3247 12.8525 36.3247 12.1305C36.3247 11.3515 36.0777 10.5915 35.5647 10.0975C34.8997 9.45145 33.9497 9.33745 33.2657 9.33745H31.1377ZM31.1377 13.0235V11.3135H32.2397C32.3157 11.3135 32.8097 11.3135 33.0757 11.5415C33.2847 11.7315 33.2847 11.9595 33.2847 12.1495C33.2847 12.3585 33.2657 12.5865 33.0947 12.7575C32.9427 12.9095 32.5627 13.0235 32.2777 13.0235H31.1377Z" fill="#2F323B"/>
<path d="M46.4708 10.9905C46.4708 10.0405 46.3188 8.55845 45.1218 7.41845C44.1148 6.46845 42.8418 6.25945 41.8538 6.25945C40.1818 6.25945 39.0798 6.81045 38.3768 7.49445C37.6358 8.21645 37.1038 9.35645 37.1038 10.7815C37.1038 12.3965 37.8068 13.4415 38.3578 13.9925C39.4028 15.0375 40.7518 15.2845 41.8728 15.2845C43.7158 15.2845 44.7038 14.7145 45.3308 14.1065C45.9578 13.4985 46.2238 12.8335 46.3568 12.3585H43.4498C43.3168 12.6245 43.1078 12.8145 42.9178 12.9285C42.5378 13.1375 42.0058 13.1565 41.9298 13.1565C41.2458 13.1565 40.8658 12.9285 40.6758 12.7385C40.3148 12.3775 40.1438 11.7695 40.1438 11.3135H46.4708V10.9905ZM40.2388 9.56545C40.2958 9.18545 40.4858 8.88145 40.6948 8.65345C41.0178 8.33045 41.4168 8.19745 41.9298 8.19745C42.2338 8.19745 42.7848 8.25445 43.1838 8.65345C43.4118 8.88145 43.6018 9.24245 43.6778 9.56545H40.2388Z" fill="#2F323B"/>
<path d="M47.8465 14.9995H50.8865V11.2375L53.6605 14.9995H57.5935L53.7555 10.4965L57.2705 6.50645H53.4515L50.8865 9.98345V6.50645H47.8465V14.9995Z" fill="#2F323B"/>
<path d="M59.6329 14.9995H62.6729V8.99545H64.8769V6.50645H57.4289V8.99545H59.6329V14.9995Z" fill="#2F323B"/>
<path d="M74.702 14.9995H77.742V6.50645H74.702V14.9995ZM68.774 9.33745V6.50645H65.734V14.9995H70.845C71.7 14.9995 72.612 14.7145 73.163 14.1635C73.771 13.5555 73.885 12.7385 73.885 12.1305C73.885 11.4845 73.752 10.7055 73.125 10.0975C72.441 9.45145 71.529 9.33745 70.845 9.33745H68.774ZM68.774 13.0235V11.3135H69.876C70.142 11.3135 70.503 11.3705 70.712 11.5415C70.826 11.6365 70.94 11.8265 70.94 12.1495C70.94 12.3775 70.864 12.6245 70.731 12.7575C70.579 12.9095 70.199 13.0235 69.914 13.0235H68.774Z" fill="#2F323B"/>
<path fill-rule="evenodd" clip-rule="evenodd" d="M1.49065 3.01723C2.59989 1.67867 4.33519 0.75 6.75 0.75C9.18408 0.75 10.9164 1.72797 12.0158 3.0766C13.0771 4.37866 13.5 5.96282 13.5 7.18518C13.5 9.33625 12.5266 11.6507 11.3466 13.4458C10.7468 14.3585 10.062 15.186 9.35846 15.8339C8.67913 16.4594 7.8804 17.0122 7.0445 17.2148L6.60836 17.3205L6.20456 17.1247C4.87167 16.4783 3.34649 15.0212 2.16853 13.3112C0.982854 11.59 0 9.39826 0 7.18518C0 5.90447 0.417203 4.3126 1.49065 3.01723ZM3.4156 4.6124C2.7703 5.39111 2.5 6.39182 2.5 7.18518C2.5 8.70131 3.1977 10.3983 4.22731 11.8929C5.08711 13.1411 6.07574 14.1005 6.84791 14.615C7.06931 14.4882 7.3456 14.2889 7.66498 13.9948C8.1932 13.5084 8.74975 12.8452 9.25752 12.0727C10.2929 10.4975 11 8.66375 11 7.18518C11 6.47103 10.7354 5.46259 10.078 4.65619C9.45861 3.89636 8.44092 3.25 6.75 3.25C5.03981 3.25 4.02511 3.87688 3.4156 4.6124Z" fill="#5768F2"/>
<circle cx="6.75" cy="7.5" r="2.5" fill="#5768F2"/>
</svg>
