<svg width="128" height="15" viewBox="0 0 128 15" fill="none" xmlns="http://www.w3.org/2000/svg">
<path d="M12.4346 13.0462V0H0.972656V13.0462H4.35646V2.89482H9.0312V13.0462H12.4346Z" fill="#2F323B"/>
<path d="M19.3897 6.66982C19.8787 6.66982 20.4263 6.90453 20.7784 7.23704C21.1696 7.62824 21.3848 8.19546 21.3848 8.66489C21.3848 9.17344 21.1696 9.68199 20.7784 10.0536C20.4068 10.4253 19.8982 10.6404 19.3897 10.6404C18.8616 10.6404 18.353 10.4253 17.9814 10.0536C17.6293 9.70155 17.375 9.193 17.375 8.66489C17.375 8.15634 17.5902 7.60868 17.9814 7.23704C18.3335 6.90453 18.8811 6.66982 19.3897 6.66982ZM24.6316 8.66489C24.6316 7.10013 23.9275 6.08303 23.282 5.45712C22.5583 4.77254 21.3065 4.00971 19.3701 4.00971C17.4728 4.00971 16.2015 4.75298 15.4778 5.45712C14.8323 6.08303 14.1282 7.10013 14.1282 8.66489C14.1282 9.83847 14.5193 10.9534 15.4778 11.8922C16.6905 13.0854 18.0987 13.3396 19.3701 13.3396C20.7784 13.3396 22.128 13.0267 23.282 11.8922C24.2405 10.9534 24.6316 9.83847 24.6316 8.66489Z" fill="#2F323B"/>
<path d="M35.1611 4.30311H26.7896V9.03652C26.7896 9.44728 26.6918 10.1319 26.3984 10.4448C26.1246 10.7382 25.616 10.836 25.1662 10.7773V13.0462C25.5965 13.1245 26.0464 13.1636 26.418 13.1636C27.0439 13.1636 28.1392 13.0854 28.8825 12.3225C29.7627 11.4032 29.8018 9.79935 29.8018 9.36904V6.86541H32.0316V13.0462H35.1611V4.30311Z" fill="#2F323B"/>
<path d="M40.0544 7.21748V4.30311H36.9248V13.0462H42.245C43.0861 13.0462 44.0836 12.7528 44.6509 12.1856C45.1594 11.6771 45.3941 10.836 45.3941 10.0927C45.3941 9.31036 45.1399 8.50842 44.6117 7.99987C44.2206 7.62824 43.4969 7.21748 42.245 7.21748H40.0544ZM40.0544 11.012V9.25168H41.1888C41.4822 9.25168 41.8147 9.31036 42.0299 9.48639C42.1864 9.62331 42.2646 9.81891 42.2646 10.1123C42.2646 10.347 42.1864 10.6013 42.0494 10.7382C41.8734 10.9338 41.4627 11.012 41.2279 11.012H40.0544Z" fill="#2F323B"/>
<path d="M46.5764 7.00233C46.9089 6.76761 47.1828 6.6307 47.5544 6.49378C47.9065 6.35686 48.2781 6.25907 48.7475 6.25907C49.2952 6.25907 49.6082 6.39598 49.6473 6.41554C49.8233 6.49378 50.0189 6.6307 50.0189 6.92409C50.0189 7.08057 49.9407 7.31528 49.6082 7.43264C49.393 7.51088 48.904 7.56956 48.6302 7.56956H47.75V9.60375H48.8258C49.0605 9.60375 49.6277 9.64287 49.8429 9.74067C50.058 9.83847 50.1949 10.0341 50.1949 10.2297C50.1949 10.4448 50.0189 10.6991 49.7842 10.8164C49.569 10.9142 49.1192 10.9729 48.8453 10.9729C48.415 10.9729 47.8478 10.8556 47.4762 10.6991C47.1241 10.5426 46.6547 10.2492 46.3808 10.0341L45.2268 12.2052C45.7354 12.5181 46.283 12.792 46.9676 13.0071C47.7109 13.2418 48.3955 13.3396 49.2365 13.3396C50.6252 13.3396 51.8184 13.144 52.6008 12.3812C53.0898 11.9118 53.4027 11.1881 53.4027 10.4839C53.4027 9.85803 53.1484 9.40816 52.8746 9.13432C52.5812 8.84093 52.1313 8.60621 51.6619 8.52798V8.48886C51.9749 8.35194 52.3074 8.11723 52.5421 7.84339C52.8942 7.43264 52.9724 6.98277 52.9724 6.5329C52.9724 5.92655 52.8159 5.45712 52.3465 4.98769C51.6228 4.26399 50.5079 4.00971 49.217 4.00971C48.2977 4.00971 47.6913 4.14663 46.9872 4.36179C46.4199 4.53782 46.0092 4.71386 45.5398 4.96813L46.5764 7.00233Z" fill="#2F323B"/>
<path d="M67.1543 4.30311V13.0462H73.1395C74.0197 13.0462 74.8217 12.7724 75.2715 12.3225C75.6432 11.9509 75.8974 11.325 75.8974 10.6404C75.8974 10.0341 75.741 9.56463 75.2715 9.13432C74.7825 8.68445 74.2153 8.56709 74.0197 8.52798V8.48886C74.3913 8.33238 74.763 8.07811 74.9781 7.76515C75.2129 7.41308 75.3498 6.88497 75.3498 6.45466C75.3498 5.88743 75.1346 5.30065 74.7434 4.92901C74.1371 4.36179 73.1395 4.30311 72.5136 4.30311H67.1543ZM70.2838 7.78471V6.20039H71.4379C71.6921 6.20039 72.0638 6.21995 72.2789 6.41554C72.4158 6.5329 72.4941 6.74805 72.4941 6.96321C72.4941 7.15881 72.4158 7.4522 72.2594 7.58912C72.1616 7.66735 71.966 7.78471 71.4574 7.78471H70.2838ZM70.2838 11.149V9.40816H71.6726C71.9464 9.40816 72.2007 9.36904 72.455 9.62331C72.5723 9.74067 72.6897 9.93626 72.6897 10.2688C72.6897 10.5817 72.5527 10.7773 72.4354 10.8947C72.1811 11.1294 71.8682 11.149 71.6726 11.149H70.2838Z" fill="#2F323B"/>
<path d="M83.8836 5.14417C83.5119 4.73342 82.6709 4.00971 81.2626 4.00971C80.0108 4.00971 78.8567 4.4987 78.1135 5.24197C77.4093 5.94611 76.7639 7.10013 76.7639 8.74313C76.7639 10.0536 77.1746 11.0512 78.0157 11.9509C79.0719 13.0658 80.2259 13.3396 81.1648 13.3396C82.0254 13.3396 83.1599 13.0854 83.8836 12.0878V13.0462H87.0131V4.30311H83.8836V5.14417ZM81.9667 6.66982C82.6317 6.66982 83.0816 6.96321 83.375 7.23704C83.864 7.70647 83.9814 8.25414 83.9814 8.66489C83.9814 9.36904 83.6684 9.79935 83.3946 10.0732C83.0034 10.4644 82.4948 10.6795 81.9863 10.6795C81.4582 10.6795 80.9105 10.4057 80.578 10.0927C80.1868 9.72111 79.9716 9.17344 79.9716 8.66489C79.9716 8.21502 80.1672 7.6478 80.5975 7.23704C81.0474 6.80673 81.5755 6.66982 81.9667 6.66982Z" fill="#2F323B"/>
<path d="M90.1663 13.0462H93.2958V6.86541H95.5647V4.30311H87.8974V6.86541H90.1663V13.0462Z" fill="#2F323B"/>
<path d="M105.718 8.91917C105.718 7.94119 105.562 6.41554 104.33 5.24197C103.293 4.26399 101.982 4.04883 100.965 4.04883C99.2441 4.04883 98.1096 4.61606 97.3859 5.32021C96.6231 6.06347 96.0754 7.23704 96.0754 8.70401C96.0754 10.3666 96.7991 11.4424 97.3664 12.0096C98.4421 13.0854 99.8309 13.3396 100.985 13.3396C102.882 13.3396 103.899 12.7528 104.545 12.1269C105.19 11.501 105.464 10.8164 105.601 10.3275H102.608C102.471 10.6013 102.256 10.7969 102.061 10.9142C101.669 11.1294 101.122 11.149 101.044 11.149C100.339 11.149 99.9482 10.9142 99.7526 10.7186C99.381 10.347 99.205 9.72111 99.205 9.25168H105.718V8.91917ZM99.3028 7.4522C99.3614 7.06101 99.557 6.74805 99.7722 6.51334C100.105 6.18083 100.515 6.04391 101.044 6.04391C101.357 6.04391 101.924 6.10259 102.334 6.51334C102.569 6.74805 102.765 7.11969 102.843 7.4522H99.3028Z" fill="#2F323B"/>
<path d="M116.249 4.30311H107.878V9.03652C107.878 9.44728 107.78 10.1319 107.487 10.4448C107.213 10.7382 106.704 10.836 106.254 10.7773V13.0462C106.685 13.1245 107.135 13.1636 107.506 13.1636C108.132 13.1636 109.227 13.0854 109.971 12.3225C110.851 11.4032 110.89 9.79935 110.89 9.36904V6.86541H113.12V13.0462H116.249V4.30311Z" fill="#2F323B"/>
<path d="M118.013 4.30311V13.0462H120.771L124.194 8.43018V13.0462H127.323V4.30311H124.605L121.143 8.80181V4.30311H118.013Z" fill="#2F323B"/>
<path fill-rule="evenodd" clip-rule="evenodd" d="M60.2383 9.78617C61.6787 9.78617 62.8463 8.61856 62.8463 7.17823C62.8463 5.7379 61.6787 4.57028 60.2383 4.57028C58.798 4.57028 57.6304 5.7379 57.6304 7.17823C57.6304 8.61856 58.798 9.78617 60.2383 9.78617ZM60.2383 12.3941C63.119 12.3941 65.4542 10.0589 65.4542 7.17823C65.4542 4.29757 63.119 1.96234 60.2383 1.96234C57.3577 1.96234 55.0225 4.29757 55.0225 7.17823C55.0225 10.0589 57.3577 12.3941 60.2383 12.3941Z" fill="#5768F2"/>
<path fill-rule="evenodd" clip-rule="evenodd" d="M57.8025 9.78558H62.4543L65.1165 14.3495H55.5205L57.8025 9.78558Z" fill="#5768F2"/>
</svg>
